<mxfile host="Electron" agent="Mozilla/5.0 (Windows NT 10.0; Win64; x64) AppleWebKit/537.36 (KHTML, like Gecko) draw.io/24.7.8 Chrome/128.0.6613.36 Electron/32.0.1 Safari/537.36" version="24.7.8">
  <diagram name="Página-1" id="wObPmkAxYD9PAaxw80ji">
    <mxGraphModel dx="600" dy="410" grid="1" gridSize="10" guides="1" tooltips="1" connect="1" arrows="1" fold="1" page="1" pageScale="1" pageWidth="827" pageHeight="1169" math="0" shadow="0">
      <root>
        <mxCell id="0" />
        <mxCell id="1" parent="0" />
        <mxCell id="aQzufj0Kl179tfjcCTew-1" value="Proyecto - Biblioteca" style="swimlane;childLayout=stackLayout;resizeParent=1;resizeParentMax=0;startSize=20;horizontal=0;horizontalStack=1;" parent="1" vertex="1">
          <mxGeometry x="220" y="130" width="500" height="480" as="geometry" />
        </mxCell>
        <mxCell id="aQzufj0Kl179tfjcCTew-2" value="Must Have" style="swimlane;startSize=20;" parent="aQzufj0Kl179tfjcCTew-1" vertex="1">
          <mxGeometry x="20" width="120" height="480" as="geometry" />
        </mxCell>
        <mxCell id="hyZgSYAmn2PD3-UxoZzA-2" value="1" style="text;html=1;align=center;verticalAlign=middle;whiteSpace=wrap;rounded=0;fontSize=32;" vertex="1" parent="aQzufj0Kl179tfjcCTew-2">
          <mxGeometry x="20" y="50" width="60" height="30" as="geometry" />
        </mxCell>
        <mxCell id="hyZgSYAmn2PD3-UxoZzA-12" value="4" style="text;html=1;align=center;verticalAlign=middle;whiteSpace=wrap;rounded=0;fontSize=32;fillColor=#fff2cc;strokeColor=#d6b656;" vertex="1" parent="aQzufj0Kl179tfjcCTew-2">
          <mxGeometry x="20" y="160" width="60" height="30" as="geometry" />
        </mxCell>
        <mxCell id="hyZgSYAmn2PD3-UxoZzA-14" value="6" style="text;html=1;align=center;verticalAlign=middle;whiteSpace=wrap;rounded=0;fontSize=32;" vertex="1" parent="aQzufj0Kl179tfjcCTew-2">
          <mxGeometry x="20" y="240" width="60" height="30" as="geometry" />
        </mxCell>
        <mxCell id="hyZgSYAmn2PD3-UxoZzA-15" value="7" style="text;html=1;align=center;verticalAlign=middle;whiteSpace=wrap;rounded=0;fontSize=32;" vertex="1" parent="aQzufj0Kl179tfjcCTew-2">
          <mxGeometry x="20" y="280" width="60" height="30" as="geometry" />
        </mxCell>
        <mxCell id="aQzufj0Kl179tfjcCTew-3" value="Should Have" style="swimlane;startSize=20;" parent="aQzufj0Kl179tfjcCTew-1" vertex="1">
          <mxGeometry x="140" width="120" height="480" as="geometry" />
        </mxCell>
        <mxCell id="hyZgSYAmn2PD3-UxoZzA-11" value="3" style="text;html=1;align=center;verticalAlign=middle;whiteSpace=wrap;rounded=0;fontSize=32;" vertex="1" parent="aQzufj0Kl179tfjcCTew-3">
          <mxGeometry x="30" y="120" width="60" height="30" as="geometry" />
        </mxCell>
        <mxCell id="hyZgSYAmn2PD3-UxoZzA-13" value="5" style="text;html=1;align=center;verticalAlign=middle;whiteSpace=wrap;rounded=0;fontSize=32;fillColor=#fff2cc;strokeColor=#d6b656;" vertex="1" parent="aQzufj0Kl179tfjcCTew-3">
          <mxGeometry x="24" y="200" width="60" height="30" as="geometry" />
        </mxCell>
        <mxCell id="hyZgSYAmn2PD3-UxoZzA-17" value="9" style="text;html=1;align=center;verticalAlign=middle;whiteSpace=wrap;rounded=0;fontSize=32;" vertex="1" parent="aQzufj0Kl179tfjcCTew-3">
          <mxGeometry x="24" y="340" width="60" height="30" as="geometry" />
        </mxCell>
        <mxCell id="aQzufj0Kl179tfjcCTew-4" value="Could Have" style="swimlane;startSize=20;" parent="aQzufj0Kl179tfjcCTew-1" vertex="1">
          <mxGeometry x="260" width="120" height="480" as="geometry" />
        </mxCell>
        <mxCell id="hyZgSYAmn2PD3-UxoZzA-10" value="2" style="text;html=1;align=center;verticalAlign=middle;whiteSpace=wrap;rounded=0;fontSize=32;fillColor=#fff2cc;strokeColor=#d6b656;" vertex="1" parent="aQzufj0Kl179tfjcCTew-4">
          <mxGeometry x="20" y="80" width="60" height="30" as="geometry" />
        </mxCell>
        <mxCell id="hyZgSYAmn2PD3-UxoZzA-16" value="8" style="text;html=1;align=center;verticalAlign=middle;whiteSpace=wrap;rounded=0;fontSize=32;" vertex="1" parent="aQzufj0Kl179tfjcCTew-4">
          <mxGeometry x="20" y="310" width="60" height="30" as="geometry" />
        </mxCell>
        <mxCell id="aQzufj0Kl179tfjcCTew-5" value="Won’t Have" style="swimlane;startSize=20;" parent="aQzufj0Kl179tfjcCTew-1" vertex="1">
          <mxGeometry x="380" width="120" height="480" as="geometry" />
        </mxCell>
        <mxCell id="hyZgSYAmn2PD3-UxoZzA-1" value="10" style="text;html=1;align=center;verticalAlign=middle;whiteSpace=wrap;rounded=0;fontSize=32;" vertex="1" parent="aQzufj0Kl179tfjcCTew-5">
          <mxGeometry x="20" y="420" width="60" height="30" as="geometry" />
        </mxCell>
        <mxCell id="hyZgSYAmn2PD3-UxoZzA-18" value="40%" style="text;html=1;align=center;verticalAlign=middle;whiteSpace=wrap;rounded=0;fontSize=32;" vertex="1" parent="1">
          <mxGeometry x="260" y="630" width="60" height="30" as="geometry" />
        </mxCell>
        <mxCell id="hyZgSYAmn2PD3-UxoZzA-19" value="30%" style="text;html=1;align=center;verticalAlign=middle;whiteSpace=wrap;rounded=0;fontSize=32;" vertex="1" parent="1">
          <mxGeometry x="390" y="630" width="60" height="30" as="geometry" />
        </mxCell>
        <mxCell id="hyZgSYAmn2PD3-UxoZzA-20" value="20%" style="text;html=1;align=center;verticalAlign=middle;whiteSpace=wrap;rounded=0;fontSize=32;" vertex="1" parent="1">
          <mxGeometry x="510" y="630" width="60" height="30" as="geometry" />
        </mxCell>
        <mxCell id="hyZgSYAmn2PD3-UxoZzA-21" value="10%" style="text;html=1;align=center;verticalAlign=middle;whiteSpace=wrap;rounded=0;fontSize=32;" vertex="1" parent="1">
          <mxGeometry x="630" y="630" width="60" height="30" as="geometry" />
        </mxCell>
        <mxCell id="hyZgSYAmn2PD3-UxoZzA-41" value="Proyecto - Biblioteca" style="swimlane;childLayout=stackLayout;resizeParent=1;resizeParentMax=0;startSize=20;horizontal=0;horizontalStack=1;" vertex="1" parent="1">
          <mxGeometry x="220" y="730" width="500" height="480" as="geometry" />
        </mxCell>
        <mxCell id="hyZgSYAmn2PD3-UxoZzA-42" value="Must Have" style="swimlane;startSize=20;" vertex="1" parent="hyZgSYAmn2PD3-UxoZzA-41">
          <mxGeometry x="20" width="120" height="480" as="geometry" />
        </mxCell>
        <mxCell id="hyZgSYAmn2PD3-UxoZzA-43" value="1" style="text;html=1;align=center;verticalAlign=middle;whiteSpace=wrap;rounded=0;fontSize=32;" vertex="1" parent="hyZgSYAmn2PD3-UxoZzA-42">
          <mxGeometry x="20" y="50" width="60" height="30" as="geometry" />
        </mxCell>
        <mxCell id="hyZgSYAmn2PD3-UxoZzA-45" value="6" style="text;html=1;align=center;verticalAlign=middle;whiteSpace=wrap;rounded=0;fontSize=32;" vertex="1" parent="hyZgSYAmn2PD3-UxoZzA-42">
          <mxGeometry x="20" y="240" width="60" height="30" as="geometry" />
        </mxCell>
        <mxCell id="hyZgSYAmn2PD3-UxoZzA-46" value="7" style="text;html=1;align=center;verticalAlign=middle;whiteSpace=wrap;rounded=0;fontSize=32;" vertex="1" parent="hyZgSYAmn2PD3-UxoZzA-42">
          <mxGeometry x="20" y="280" width="60" height="30" as="geometry" />
        </mxCell>
        <mxCell id="hyZgSYAmn2PD3-UxoZzA-49" value="5" style="text;html=1;align=center;verticalAlign=middle;whiteSpace=wrap;rounded=0;fontSize=32;fillColor=#f8cecc;strokeColor=#b85450;" vertex="1" parent="hyZgSYAmn2PD3-UxoZzA-42">
          <mxGeometry x="20" y="200" width="60" height="30" as="geometry" />
        </mxCell>
        <mxCell id="hyZgSYAmn2PD3-UxoZzA-47" value="Should Have" style="swimlane;startSize=20;" vertex="1" parent="hyZgSYAmn2PD3-UxoZzA-41">
          <mxGeometry x="140" width="120" height="480" as="geometry" />
        </mxCell>
        <mxCell id="hyZgSYAmn2PD3-UxoZzA-48" value="3" style="text;html=1;align=center;verticalAlign=middle;whiteSpace=wrap;rounded=0;fontSize=32;" vertex="1" parent="hyZgSYAmn2PD3-UxoZzA-47">
          <mxGeometry x="24" y="120" width="60" height="30" as="geometry" />
        </mxCell>
        <mxCell id="hyZgSYAmn2PD3-UxoZzA-50" value="9" style="text;html=1;align=center;verticalAlign=middle;whiteSpace=wrap;rounded=0;fontSize=32;" vertex="1" parent="hyZgSYAmn2PD3-UxoZzA-47">
          <mxGeometry x="24" y="340" width="60" height="30" as="geometry" />
        </mxCell>
        <mxCell id="hyZgSYAmn2PD3-UxoZzA-44" value="4" style="text;html=1;align=center;verticalAlign=middle;whiteSpace=wrap;rounded=0;fontSize=32;fillColor=#f8cecc;strokeColor=#b85450;" vertex="1" parent="hyZgSYAmn2PD3-UxoZzA-47">
          <mxGeometry x="24" y="160" width="60" height="30" as="geometry" />
        </mxCell>
        <mxCell id="hyZgSYAmn2PD3-UxoZzA-51" value="Could Have" style="swimlane;startSize=20;" vertex="1" parent="hyZgSYAmn2PD3-UxoZzA-41">
          <mxGeometry x="260" width="120" height="480" as="geometry" />
        </mxCell>
        <mxCell id="hyZgSYAmn2PD3-UxoZzA-52" value="2" style="text;html=1;align=center;verticalAlign=middle;whiteSpace=wrap;rounded=0;fontSize=32;fillColor=#fff2cc;strokeColor=#d6b656;" vertex="1" parent="hyZgSYAmn2PD3-UxoZzA-51">
          <mxGeometry x="30" y="70" width="60" height="30" as="geometry" />
        </mxCell>
        <mxCell id="hyZgSYAmn2PD3-UxoZzA-53" value="8" style="text;html=1;align=center;verticalAlign=middle;whiteSpace=wrap;rounded=0;fontSize=32;" vertex="1" parent="hyZgSYAmn2PD3-UxoZzA-51">
          <mxGeometry x="30" y="380" width="60" height="30" as="geometry" />
        </mxCell>
        <mxCell id="hyZgSYAmn2PD3-UxoZzA-54" value="Won’t Have" style="swimlane;startSize=20;" vertex="1" parent="hyZgSYAmn2PD3-UxoZzA-41">
          <mxGeometry x="380" width="120" height="480" as="geometry" />
        </mxCell>
        <mxCell id="hyZgSYAmn2PD3-UxoZzA-55" value="10" style="text;html=1;align=center;verticalAlign=middle;whiteSpace=wrap;rounded=0;fontSize=32;" vertex="1" parent="hyZgSYAmn2PD3-UxoZzA-54">
          <mxGeometry x="20" y="420" width="60" height="30" as="geometry" />
        </mxCell>
        <mxCell id="hyZgSYAmn2PD3-UxoZzA-56" value="40%" style="text;html=1;align=center;verticalAlign=middle;whiteSpace=wrap;rounded=0;fontSize=32;" vertex="1" parent="1">
          <mxGeometry x="260" y="1230" width="60" height="30" as="geometry" />
        </mxCell>
        <mxCell id="hyZgSYAmn2PD3-UxoZzA-57" value="30%" style="text;html=1;align=center;verticalAlign=middle;whiteSpace=wrap;rounded=0;fontSize=32;" vertex="1" parent="1">
          <mxGeometry x="390" y="1230" width="60" height="30" as="geometry" />
        </mxCell>
        <mxCell id="hyZgSYAmn2PD3-UxoZzA-58" value="20%" style="text;html=1;align=center;verticalAlign=middle;whiteSpace=wrap;rounded=0;fontSize=32;" vertex="1" parent="1">
          <mxGeometry x="510" y="1230" width="60" height="30" as="geometry" />
        </mxCell>
        <mxCell id="hyZgSYAmn2PD3-UxoZzA-59" value="10%" style="text;html=1;align=center;verticalAlign=middle;whiteSpace=wrap;rounded=0;fontSize=32;" vertex="1" parent="1">
          <mxGeometry x="630" y="1230" width="60" height="30" as="geometry" />
        </mxCell>
        <mxCell id="hyZgSYAmn2PD3-UxoZzA-61" value="2.5" style="text;html=1;align=center;verticalAlign=middle;whiteSpace=wrap;rounded=0;fontSize=32;" vertex="1" parent="1">
          <mxGeometry x="250" y="1320" width="70" height="40" as="geometry" />
        </mxCell>
        <mxCell id="hyZgSYAmn2PD3-UxoZzA-62" value="1.8" style="text;html=1;align=center;verticalAlign=middle;whiteSpace=wrap;rounded=0;fontSize=32;" vertex="1" parent="1">
          <mxGeometry x="380" y="1320" width="70" height="40" as="geometry" />
        </mxCell>
        <mxCell id="hyZgSYAmn2PD3-UxoZzA-63" value="1.2" style="text;html=1;align=center;verticalAlign=middle;whiteSpace=wrap;rounded=0;fontSize=32;" vertex="1" parent="1">
          <mxGeometry x="505" y="1320" width="70" height="40" as="geometry" />
        </mxCell>
        <mxCell id="hyZgSYAmn2PD3-UxoZzA-64" value="" style="triangle;whiteSpace=wrap;html=1;rotation=-90;" vertex="1" parent="1">
          <mxGeometry x="414" y="1420" width="60" height="80" as="geometry" />
        </mxCell>
        <mxCell id="hyZgSYAmn2PD3-UxoZzA-65" value="Alcance" style="text;html=1;align=center;verticalAlign=middle;whiteSpace=wrap;rounded=0;" vertex="1" parent="1">
          <mxGeometry x="414" y="1400" width="60" height="30" as="geometry" />
        </mxCell>
        <mxCell id="hyZgSYAmn2PD3-UxoZzA-66" value="Tiempo" style="text;html=1;align=center;verticalAlign=middle;whiteSpace=wrap;rounded=0;" vertex="1" parent="1">
          <mxGeometry x="480" y="1470" width="60" height="30" as="geometry" />
        </mxCell>
        <mxCell id="hyZgSYAmn2PD3-UxoZzA-67" value="Costo" style="text;html=1;align=center;verticalAlign=middle;whiteSpace=wrap;rounded=0;" vertex="1" parent="1">
          <mxGeometry x="340" y="1470" width="60" height="30" as="geometry" />
        </mxCell>
        <mxCell id="hyZgSYAmn2PD3-UxoZzA-68" value="Métricas&lt;div&gt;----&lt;/div&gt;&lt;div&gt;Triggers&lt;/div&gt;" style="text;html=1;align=center;verticalAlign=middle;whiteSpace=wrap;rounded=0;" vertex="1" parent="1">
          <mxGeometry x="414" y="1550" width="60" height="30" as="geometry" />
        </mxCell>
      </root>
    </mxGraphModel>
  </diagram>
</mxfile>
